<svg xmlns="http://www.w3.org/2000/svg" xmlns:xlink="http://www.w3.org/1999/xlink" width="1200" height="1080" viewBox="0 0 1200 1080">
  <defs>
    <clipPath id="clip-Confidentiality_Agreement">
      <rect width="1200" height="1080"/>
    </clipPath>
  </defs>
  <g id="Confidentiality_Agreement" data-name="Confidentiality Agreement" clip-path="url(#clip-Confidentiality_Agreement)">
    <rect width="1200" height="1080" fill="#fff"/>
    <path id="Subtraction_7" data-name="Subtraction 7" d="M1238.13,1812.22a.56.56,0,0,1-.319-.214l0-.005L600,1812.043,600.006,1296H853.379V0h506.9c-18.12,28.849-33.214,54.726-46.145,79.112-7.528,14.2-14.53,28.3-20.812,41.9-6.771,14.66-12.98,29.339-18.456,43.63-5.827,15.21-11.03,30.515-15.464,45.489-4.678,15.8-8.659,31.776-11.832,47.474-3.329,16.467-5.875,33.151-7.567,49.588a507.582,507.582,0,0,0-2.664,51.827,383.554,383.554,0,0,0,2.865,46.612,406.721,406.721,0,0,0,8.122,44.767c3.386,14.154,7.648,28.7,12.667,43.247,4.7,13.609,10.246,27.758,16.5,42.056,5.834,13.341,12.251,26.815,19.619,41.192,6.575,12.831,13.78,26.129,22.026,40.654,15.321,26.983,32.121,54.393,48.368,80.9l.018.03.025.04.019.032.012.02.048.078c17.9,29.207,36.41,59.408,53.719,90.209,9.356,16.652,17.558,32.025,25.074,47,8.479,16.89,15.884,32.849,22.638,48.79,7.269,17.153,13.757,34.314,19.283,51,5.925,17.9,10.975,35.945,15.01,53.642a543.609,543.609,0,0,1,9.816,56.7c1.344,11.347,2.337,22.956,2.951,34.506H981.085v438h366.481c-6.342,10.476-11.993,19.992-17.274,29.093-8.424,14.523-15.836,27.858-22.657,40.766-7.678,14.529-14.431,28.171-20.646,41.705-6.677,14.54-12.716,28.984-17.949,42.932-5.595,14.917-10.494,29.87-14.562,44.445-4.3,15.414-7.832,30.973-10.491,46.244a447.329,447.329,0,0,0-5.731,48.333C1238.247,1812.152,1238.205,1812.22,1238.13,1812.22Z" transform="translate(-981.085 -0.499)" fill="#f3f4f5" stroke="rgba(0,0,0,0)" stroke-miterlimit="10" stroke-width="1"/>
  </g>
</svg>
